<?xml version="1.0" standalone="no"?>
<!DOCTYPE svg PUBLIC "-//W3C//DTD SVG 20010904//EN"
 "http://www.w3.org/TR/2001/REC-SVG-20010904/DTD/svg10.dtd">
<svg version="1.0" xmlns="http://www.w3.org/2000/svg"
 width="394.000000pt" height="357.000000pt" viewBox="0 0 394.000000 357.000000"
 preserveAspectRatio="xMidYMid meet">

<g transform="translate(0.000000,357.000000) scale(0.100000,-0.100000)"
fill="#000000" stroke="none">
<path d="M1850 3054 c-52 -8 -99 -19 -103 -24 -5 -4 -4 -33 3 -65 6 -31 10
-59 7 -62 -3 -2 -47 -19 -99 -37 -51 -18 -101 -36 -110 -40 -13 -6 -23 5 -48
54 l-31 61 -47 -27 c-162 -92 -305 -209 -403 -325 l-42 -51 29 -23 c16 -12 40
-31 53 -42 l24 -19 -40 -60 c-23 -32 -50 -78 -62 -101 -12 -24 -26 -43 -31
-43 -5 0 -34 11 -65 24 l-55 25 -16 -37 c-65 -152 -114 -368 -114 -508 l0 -74
65 0 c51 0 65 -3 65 -15 0 -11 11 -15 40 -15 l40 0 0 50 0 50 -70 0 c-82 0
-78 -11 -54 148 12 86 65 285 79 301 2 1 29 -9 61 -23 31 -14 58 -26 60 -26 2
0 21 35 43 78 21 42 65 113 96 157 l57 79 -52 46 -52 46 82 77 c79 74 161 137
242 186 l37 22 30 -60 31 -60 73 34 c70 32 233 85 263 85 17 0 17 0 0 72 -8
32 -10 60 -6 63 5 3 56 10 114 16 79 9 134 8 218 0 62 -7 114 -14 116 -16 2
-2 -1 -27 -7 -55 -16 -76 -16 -76 47 -89 62 -14 223 -74 260 -98 13 -8 25 -13
27 -11 1 2 14 26 29 55 14 28 29 54 33 56 17 10 179 -108 267 -194 l91 -89
-25 -21 c-14 -12 -37 -31 -52 -43 l-27 -21 50 -65 c27 -36 70 -105 95 -155 26
-49 48 -91 49 -93 1 -2 29 9 61 23 31 14 61 22 65 18 28 -30 89 -301 89 -394
l0 -49 -65 0 -65 0 0 -50 0 -50 35 0 c24 0 35 5 35 15 0 12 14 15 70 15 l70 0
0 29 c0 66 -22 242 -40 318 -16 67 -82 259 -94 270 -1 2 -26 -8 -54 -22 -29
-14 -56 -25 -61 -25 -5 0 -19 17 -32 38 -12 20 -40 66 -63 101 l-40 64 48 42
c35 30 47 46 41 56 -26 43 -111 132 -191 198 -90 75 -255 181 -281 181 -7 0
-25 -25 -40 -55 -15 -30 -30 -55 -34 -55 -4 0 -31 11 -60 24 -30 13 -80 31
-112 40 -46 13 -57 20 -53 34 15 49 24 108 18 113 -34 31 -371 46 -512 23z"/>
<path d="M1867 2715 c-185 -35 -366 -129 -507 -262 -198 -188 -305 -417 -317
-680 l-6 -123 35 0 35 0 6 113 c13 248 106 449 287 627 499 490 1341 275 1553
-395 28 -89 53 -269 43 -316 -5 -28 -4 -29 34 -29 l40 0 0 68 c0 91 -24 231
-55 321 -49 144 -157 315 -263 413 -120 112 -300 210 -452 248 -113 28 -324
35 -433 15z"/>
<path d="M2044 2463 c-4 -15 -14 -23 -28 -23 -20 -1 -20 -1 -3 -14 9 -7 15
-20 12 -27 -4 -10 4 -14 30 -15 24 0 32 3 25 10 -6 6 -4 16 7 28 15 17 15 18
-1 18 -9 0 -21 10 -26 23 l-9 22 -7 -22z"/>
<path d="M2048 2360 c-4 -14 -8 -62 -8 -108 0 -112 -15 -142 -72 -142 -33 0
-39 -3 -30 -12 7 -7 12 -42 12 -85 0 -69 -1 -73 -22 -73 -17 0 -19 -3 -10 -12
7 -7 12 -36 12 -65 0 -52 0 -53 -30 -53 -29 0 -40 -13 -20 -25 6 -3 10 -22 10
-41 l0 -34 -251 0 c-152 0 -268 -4 -295 -11 -25 -6 -43 -14 -40 -16 2 -2 135
-4 296 -3 233 0 291 -2 288 -12 -4 -10 -68 -14 -281 -16 l-277 -2 0 -65 0 -65
-410 0 -410 0 0 -87 c0 -49 -3 -112 -6 -140 l-7 -53 382 0 381 0 0 30 c0 34
25 53 52 39 11 -6 18 -21 18 -39 l0 -30 136 0 c120 0 135 -2 124 -15 -7 -8
-21 -15 -31 -15 -10 0 -21 -4 -24 -10 -4 -6 6 -10 22 -10 21 0 41 13 73 45 41
41 48 45 94 45 l50 0 -44 -45 -44 -45 364 0 364 0 -44 45 -44 45 48 0 c44 0
54 -4 97 -45 31 -29 57 -45 74 -45 25 0 36 19 13 21 -7 1 -19 2 -27 3 -8 0
-16 7 -18 14 -4 9 26 12 126 12 l131 0 0 24 c0 14 7 32 16 40 23 24 54 4 54
-34 l0 -30 385 0 385 0 0 28 c0 16 -3 31 -6 35 -3 3 -7 52 -7 109 l-2 103
-412 3 -413 2 0 65 0 65 -277 2 c-179 2 -277 7 -276 13 2 6 113 12 295 15 366
6 352 21 -26 29 l-269 6 -2 30 c-1 17 5 38 13 48 14 16 12 17 -21 17 l-37 0 0
46 c0 25 5 54 10 65 9 16 7 19 -10 19 -18 0 -20 6 -20 73 0 43 5 78 12 85 9 9
3 12 -30 12 -37 0 -43 3 -56 33 -10 21 -17 69 -18 137 -2 65 -6 95 -10 80z
m80 -347 l-3 -68 -75 0 -75 0 -3 68 -3 67 81 0 81 0 -3 -67z m22 -153 l0 -51
-97 3 -98 3 -3 48 -3 47 100 0 101 0 0 -50z m43 -92 c-2 -5 -3 -75 -3 -158 l0
-150 -140 0 -140 0 0 160 0 161 143 -3 c78 -2 141 -6 140 -10z m-303 -223 l0
-85 -45 0 c-25 0 -45 -4 -45 -10 0 -5 5 -10 10 -10 6 0 10 -7 10 -15 0 -8 -4
-15 -10 -15 -5 0 -10 -4 -10 -10 0 -6 90 -10 250 -10 138 0 250 4 250 8 0 4
-6 14 -12 21 -10 11 -10 14 0 18 25 9 11 22 -29 25 l-41 3 0 80 0 80 266 3
266 2 0 -165 0 -165 -700 0 -700 0 0 165 0 165 270 0 270 0 0 -85z m-1152
-142 l-3 -98 -102 -3 -103 -3 0 101 0 100 105 0 106 0 -3 -97z m262 -3 l0
-100 -120 0 -120 0 0 100 0 100 120 0 120 0 0 -100z m240 0 l0 -100 -110 0
-110 0 0 100 0 100 110 0 110 0 0 -100z m90 16 l0 -84 -35 0 -35 0 0 84 0 84
35 0 35 0 0 -84z m1510 0 l0 -84 -35 0 -35 0 0 77 c0 43 3 81 7 84 3 4 19 7
35 7 l28 0 0 -84z m240 -16 l0 -100 -110 0 -110 0 0 100 0 100 110 0 110 0 0
-100z m260 0 l0 -101 -117 3 -118 3 -3 98 -3 97 121 0 120 0 0 -100z m233 0
l0 -95 -103 0 -102 0 1 93 c0 50 0 94 1 97 0 3 46 4 101 3 l102 -3 0 -95z
m-1315 28 c-4 -10 -54 -13 -208 -13 -154 0 -204 3 -207 13 -4 9 42 12 207 12
165 0 211 -3 208 -12z m-1018 -158 c0 -6 -127 -10 -360 -10 -233 0 -360 4
-360 10 0 6 127 10 360 10 233 0 360 -4 360 -10z m395 0 c-4 -6 -63 -10 -146
-10 -86 0 -139 4 -139 10 0 6 55 10 146 10 94 0 143 -4 139 -10z m670 0 c4 -7
-83 -10 -255 -10 -172 0 -259 3 -255 10 4 6 100 10 255 10 155 0 251 -4 255
-10z m445 0 c0 -6 -53 -10 -139 -10 -83 0 -142 4 -146 10 -4 6 45 10 139 10
91 0 146 -4 146 -10z m840 0 c0 -6 -128 -10 -365 -10 -237 0 -365 4 -365 10 0
6 128 10 365 10 237 0 365 -4 365 -10z m-1243 -47 c3 -9 -68 -12 -296 -13
-166 0 -301 3 -301 8 0 5 3 12 7 15 4 4 137 6 296 5 214 -2 291 -6 294 -15z"/>
<path d="M2000 2040 c0 -19 3 -21 12 -12 9 9 9 15 0 24 -9 9 -12 7 -12 -12z"/>
<path d="M2044 2049 c-3 -6 -1 -16 5 -22 8 -8 11 -5 11 11 0 24 -5 28 -16 11z"/>
<path d="M2085 2050 c-4 -6 -3 -16 3 -22 6 -6 12 -6 17 2 4 6 3 16 -3 22 -6 6
-12 6 -17 -2z"/>
<path d="M2000 1985 c0 -8 5 -15 10 -15 6 0 10 7 10 15 0 8 -4 15 -10 15 -5 0
-10 -7 -10 -15z"/>
<path d="M2040 1985 c0 -8 5 -15 10 -15 6 0 10 7 10 15 0 8 -4 15 -10 15 -5 0
-10 -7 -10 -15z"/>
<path d="M2087 1994 c-8 -8 1 -24 14 -24 5 0 9 7 9 15 0 15 -12 20 -23 9z"/>
<path d="M2000 1859 c0 -11 5 -17 10 -14 6 3 10 13 10 21 0 8 -4 14 -10 14 -5
0 -10 -9 -10 -21z"/>
<path d="M2040 1866 c0 -8 5 -18 10 -21 6 -3 10 3 10 14 0 12 -4 21 -10 21 -5
0 -10 -6 -10 -14z"/>
<path d="M2086 1873 c-11 -11 -6 -23 9 -23 8 0 15 4 15 9 0 13 -16 22 -24 14z"/>
<path d="M1950 1731 c0 -6 5 -13 10 -16 6 -3 10 1 10 9 0 9 -4 16 -10 16 -5 0
-10 -4 -10 -9z"/>
<path d="M2000 1725 c0 -8 5 -15 10 -15 6 0 10 7 10 15 0 8 -4 15 -10 15 -5 0
-10 -7 -10 -15z"/>
<path d="M2040 1725 c0 -8 5 -15 10 -15 6 0 10 7 10 15 0 8 -4 15 -10 15 -5 0
-10 -7 -10 -15z"/>
<path d="M2082 1729 c2 -6 8 -10 13 -10 5 0 11 4 13 10 2 6 -4 11 -13 11 -9 0
-15 -5 -13 -11z"/>
<path d="M2130 1725 c0 -8 5 -15 10 -15 6 0 10 7 10 15 0 8 -4 15 -10 15 -5 0
-10 -7 -10 -15z"/>
<path d="M1950 1675 c0 -8 5 -15 10 -15 6 0 10 7 10 15 0 8 -4 15 -10 15 -5 0
-10 -7 -10 -15z"/>
<path d="M2000 1675 c0 -8 5 -15 10 -15 6 0 10 7 10 15 0 8 -4 15 -10 15 -5 0
-10 -7 -10 -15z"/>
<path d="M2040 1675 c0 -8 5 -15 10 -15 6 0 10 7 10 15 0 8 -4 15 -10 15 -5 0
-10 -7 -10 -15z"/>
<path d="M2086 1683 c-11 -11 -6 -23 9 -23 8 0 15 4 15 9 0 13 -16 22 -24 14z"/>
<path d="M2130 1675 c0 -8 5 -15 10 -15 6 0 10 7 10 15 0 8 -4 15 -10 15 -5 0
-10 -7 -10 -15z"/>
<path d="M1954 1629 c-3 -6 -1 -16 5 -22 8 -8 11 -5 11 11 0 24 -5 28 -16 11z"/>
<path d="M2000 1620 c0 -19 3 -21 12 -12 9 9 9 15 0 24 -9 9 -12 7 -12 -12z"/>
<path d="M2044 1629 c-3 -6 -1 -16 5 -22 8 -8 11 -5 11 11 0 24 -5 28 -16 11z"/>
<path d="M2085 1630 c-4 -6 -3 -16 3 -22 6 -6 12 -6 17 2 4 6 3 16 -3 22 -6 6
-12 6 -17 -2z"/>
<path d="M2130 1621 c0 -12 5 -21 10 -21 6 0 10 6 10 14 0 8 -4 18 -10 21 -5
3 -10 -3 -10 -14z"/>
<path d="M1950 1565 c0 -9 5 -15 11 -13 6 2 11 8 11 13 0 5 -5 11 -11 13 -6 2
-11 -4 -11 -13z"/>
<path d="M2000 1565 c0 -8 5 -15 10 -15 6 0 10 7 10 15 0 8 -4 15 -10 15 -5 0
-10 -7 -10 -15z"/>
<path d="M2040 1565 c0 -8 5 -15 10 -15 6 0 10 7 10 15 0 8 -4 15 -10 15 -5 0
-10 -7 -10 -15z"/>
<path d="M2087 1573 c-12 -11 -8 -23 8 -23 8 0 15 7 15 15 0 16 -12 20 -23 8z"/>
<path d="M2130 1565 c0 -8 5 -15 10 -15 6 0 10 7 10 15 0 8 -4 15 -10 15 -5 0
-10 -7 -10 -15z"/>
<path d="M1954 1519 c-3 -6 -1 -16 5 -22 8 -8 11 -5 11 11 0 24 -5 28 -16 11z"/>
<path d="M2000 1510 c0 -19 3 -21 12 -12 9 9 9 15 0 24 -9 9 -12 7 -12 -12z"/>
<path d="M2045 1517 c-4 -10 -5 -21 -1 -24 10 -10 18 4 13 24 -4 17 -4 17 -12
0z"/>
<path d="M2085 1520 c-4 -6 -3 -16 3 -22 6 -6 12 -6 17 2 4 6 3 16 -3 22 -6 6
-12 6 -17 -2z"/>
<path d="M2130 1511 c0 -12 5 -21 10 -21 6 0 10 6 10 14 0 8 -4 18 -10 21 -5
3 -10 -3 -10 -14z"/>
<path d="M1430 1595 c0 -8 5 -15 10 -15 6 0 10 7 10 15 0 8 -4 15 -10 15 -5 0
-10 -7 -10 -15z"/>
<path d="M1470 1595 c0 -8 5 -15 10 -15 6 0 10 7 10 15 0 8 -4 15 -10 15 -5 0
-10 -7 -10 -15z"/>
<path d="M1516 1603 c-11 -11 -6 -23 9 -23 8 0 15 4 15 9 0 13 -16 22 -24 14z"/>
<path d="M1560 1595 c0 -8 5 -15 10 -15 6 0 10 7 10 15 0 8 -4 15 -10 15 -5 0
-10 -7 -10 -15z"/>
<path d="M1606 1601 c-4 -7 -5 -15 -2 -18 9 -9 19 4 14 18 -4 11 -6 11 -12 0z"/>
<path d="M1650 1596 c0 -9 5 -16 10 -16 6 0 10 4 10 9 0 6 -4 13 -10 16 -5 3
-10 -1 -10 -9z"/>
<path d="M1690 1595 c0 -8 5 -15 10 -15 6 0 10 7 10 15 0 8 -4 15 -10 15 -5 0
-10 -7 -10 -15z"/>
<path d="M1736 1603 c-11 -11 -6 -23 9 -23 8 0 15 4 15 9 0 13 -16 22 -24 14z"/>
<path d="M1780 1595 c0 -8 5 -15 10 -15 6 0 10 7 10 15 0 8 -4 15 -10 15 -5 0
-10 -7 -10 -15z"/>
<path d="M1820 1595 c0 -8 5 -15 10 -15 6 0 10 7 10 15 0 8 -4 15 -10 15 -5 0
-10 -7 -10 -15z"/>
<path d="M2260 1595 c0 -8 5 -15 10 -15 6 0 10 7 10 15 0 8 -4 15 -10 15 -5 0
-10 -7 -10 -15z"/>
<path d="M2306 1601 c-4 -7 -5 -15 -2 -18 9 -9 19 4 14 18 -4 11 -6 11 -12 0z"/>
<path d="M2350 1595 c0 -8 5 -15 10 -15 6 0 10 7 10 15 0 8 -4 15 -10 15 -5 0
-10 -7 -10 -15z"/>
<path d="M2390 1595 c0 -8 5 -15 10 -15 6 0 10 7 10 15 0 8 -4 15 -10 15 -5 0
-10 -7 -10 -15z"/>
<path d="M2436 1602 c-3 -6 -1 -14 5 -17 15 -10 25 3 12 16 -7 7 -13 7 -17 1z"/>
<path d="M2480 1595 c0 -8 5 -15 10 -15 6 0 10 7 10 15 0 8 -4 15 -10 15 -5 0
-10 -7 -10 -15z"/>
<path d="M2526 1601 c-4 -7 -5 -15 -2 -18 9 -9 19 4 14 18 -4 11 -6 11 -12 0z"/>
<path d="M2570 1596 c0 -9 5 -16 10 -16 6 0 10 4 10 9 0 6 -4 13 -10 16 -5 3
-10 -1 -10 -9z"/>
<path d="M2610 1595 c0 -8 5 -15 10 -15 6 0 10 7 10 15 0 8 -4 15 -10 15 -5 0
-10 -7 -10 -15z"/>
<path d="M2656 1603 c-11 -11 -6 -23 9 -23 8 0 15 4 15 9 0 13 -16 22 -24 14z"/>
<path d="M1430 1546 c0 -9 5 -16 10 -16 6 0 10 4 10 9 0 6 -4 13 -10 16 -5 3
-10 -1 -10 -9z"/>
<path d="M1476 1551 c-4 -7 -5 -15 -2 -18 9 -9 19 4 14 18 -4 11 -6 11 -12 0z"/>
<path d="M1516 1553 c-11 -11 -6 -23 9 -23 8 0 15 4 15 9 0 13 -16 22 -24 14z"/>
<path d="M1606 1551 c-4 -7 -5 -15 -2 -18 9 -9 19 4 14 18 -4 11 -6 11 -12 0z"/>
<path d="M1650 1546 c0 -9 5 -16 10 -16 6 0 10 4 10 9 0 6 -4 13 -10 16 -5 3
-10 -1 -10 -9z"/>
<path d="M1696 1551 c-4 -7 -5 -15 -2 -18 9 -9 19 4 14 18 -4 11 -6 11 -12 0z"/>
<path d="M1736 1553 c-11 -11 -6 -23 9 -23 8 0 15 4 15 9 0 13 -16 22 -24 14z"/>
<path d="M1780 1540 c0 -19 3 -21 12 -12 9 9 9 15 0 24 -9 9 -12 7 -12 -12z"/>
<path d="M1824 1549 c-3 -6 -1 -16 5 -22 8 -8 11 -5 11 11 0 24 -5 28 -16 11z"/>
<path d="M2304 1549 c-3 -6 -1 -16 5 -22 8 -8 11 -5 11 11 0 24 -5 28 -16 11z"/>
<path d="M2350 1546 c0 -9 5 -16 10 -16 6 0 10 4 10 9 0 6 -4 13 -10 16 -5 3
-10 -1 -10 -9z"/>
<path d="M2396 1551 c-4 -7 -5 -15 -2 -18 9 -9 19 4 14 18 -4 11 -6 11 -12 0z"/>
<path d="M2436 1553 c-11 -11 -6 -23 9 -23 8 0 15 4 15 9 0 13 -16 22 -24 14z"/>
<path d="M2480 1546 c0 -9 5 -16 10 -16 6 0 10 4 10 9 0 6 -4 13 -10 16 -5 3
-10 -1 -10 -9z"/>
<path d="M2526 1551 c-4 -7 -5 -15 -2 -18 9 -9 19 4 14 18 -4 11 -6 11 -12 0z"/>
<path d="M2570 1546 c0 -9 5 -16 10 -16 6 0 10 4 10 9 0 6 -4 13 -10 16 -5 3
-10 -1 -10 -9z"/>
<path d="M2616 1551 c-4 -7 -5 -15 -2 -18 9 -9 19 4 14 18 -4 11 -6 11 -12 0z"/>
<path d="M2656 1553 c-11 -11 -6 -23 9 -23 8 0 15 4 15 9 0 13 -16 22 -24 14z"/>
<path d="M1560 1540 c0 -5 5 -10 10 -10 6 0 10 5 10 10 0 6 -4 10 -10 10 -5 0
-10 -4 -10 -10z"/>
<path d="M2260 1540 c0 -5 5 -10 10 -10 6 0 10 5 10 10 0 6 -4 10 -10 10 -5 0
-10 -4 -10 -10z"/>
<path d="M1430 1496 c0 -9 5 -16 10 -16 6 0 10 4 10 9 0 6 -4 13 -10 16 -5 3
-10 -1 -10 -9z"/>
<path d="M1470 1495 c0 -8 5 -15 10 -15 6 0 10 7 10 15 0 8 -4 15 -10 15 -5 0
-10 -7 -10 -15z"/>
<path d="M1516 1503 c-11 -11 -6 -23 9 -23 8 0 15 4 15 9 0 13 -16 22 -24 14z"/>
<path d="M1560 1495 c0 -8 5 -15 10 -15 6 0 10 7 10 15 0 8 -4 15 -10 15 -5 0
-10 -7 -10 -15z"/>
<path d="M1606 1501 c-4 -7 -5 -15 -2 -18 9 -9 19 4 14 18 -4 11 -6 11 -12 0z"/>
<path d="M1650 1496 c0 -9 5 -16 10 -16 6 0 10 4 10 9 0 6 -4 13 -10 16 -5 3
-10 -1 -10 -9z"/>
<path d="M1690 1495 c0 -8 5 -15 10 -15 6 0 10 7 10 15 0 8 -4 15 -10 15 -5 0
-10 -7 -10 -15z"/>
<path d="M1736 1503 c-11 -11 -6 -23 9 -23 8 0 15 4 15 9 0 13 -16 22 -24 14z"/>
<path d="M2350 1496 c0 -9 5 -16 10 -16 6 0 10 4 10 9 0 6 -4 13 -10 16 -5 3
-10 -1 -10 -9z"/>
<path d="M2396 1501 c-4 -7 -5 -15 -2 -18 9 -9 19 4 14 18 -4 11 -6 11 -12 0z"/>
<path d="M2440 1496 c0 -9 5 -16 10 -16 6 0 10 4 10 9 0 6 -4 13 -10 16 -5 3
-10 -1 -10 -9z"/>
<path d="M2480 1495 c0 -8 5 -15 10 -15 6 0 10 7 10 15 0 8 -4 15 -10 15 -5 0
-10 -7 -10 -15z"/>
<path d="M2526 1501 c-4 -7 -5 -15 -2 -18 9 -9 19 4 14 18 -4 11 -6 11 -12 0z"/>
<path d="M2570 1496 c0 -9 5 -16 10 -16 6 0 10 4 10 9 0 6 -4 13 -10 16 -5 3
-10 -1 -10 -9z"/>
<path d="M2610 1495 c0 -8 5 -15 10 -15 6 0 10 7 10 15 0 8 -4 15 -10 15 -5 0
-10 -7 -10 -15z"/>
<path d="M2656 1503 c-11 -11 -6 -23 9 -23 8 0 15 4 15 9 0 13 -16 22 -24 14z"/>
<path d="M1430 1445 c0 -8 5 -15 10 -15 6 0 10 7 10 15 0 8 -4 15 -10 15 -5 0
-10 -7 -10 -15z"/>
<path d="M1470 1445 c0 -8 5 -15 10 -15 6 0 10 7 10 15 0 8 -4 15 -10 15 -5 0
-10 -7 -10 -15z"/>
<path d="M1516 1453 c-11 -11 -6 -23 9 -23 8 0 15 4 15 9 0 13 -16 22 -24 14z"/>
<path d="M1560 1445 c0 -8 5 -15 10 -15 6 0 10 7 10 15 0 8 -4 15 -10 15 -5 0
-10 -7 -10 -15z"/>
<path d="M1600 1445 c0 -8 5 -15 10 -15 6 0 10 7 10 15 0 8 -4 15 -10 15 -5 0
-10 -7 -10 -15z"/>
<path d="M1650 1446 c0 -9 5 -16 10 -16 6 0 10 4 10 9 0 6 -4 13 -10 16 -5 3
-10 -1 -10 -9z"/>
<path d="M1690 1445 c0 -8 5 -15 10 -15 6 0 10 7 10 15 0 8 -4 15 -10 15 -5 0
-10 -7 -10 -15z"/>
<path d="M1736 1453 c-11 -11 -6 -23 9 -23 8 0 15 4 15 9 0 13 -16 22 -24 14z"/>
<path d="M2350 1445 c0 -8 5 -15 10 -15 6 0 10 7 10 15 0 8 -4 15 -10 15 -5 0
-10 -7 -10 -15z"/>
<path d="M2390 1445 c0 -8 5 -15 10 -15 6 0 10 7 10 15 0 8 -4 15 -10 15 -5 0
-10 -7 -10 -15z"/>
<path d="M2436 1452 c-3 -6 -1 -14 5 -17 15 -10 25 3 12 16 -7 7 -13 7 -17 1z"/>
<path d="M2480 1445 c0 -8 5 -15 10 -15 6 0 10 7 10 15 0 8 -4 15 -10 15 -5 0
-10 -7 -10 -15z"/>
<path d="M2520 1445 c0 -8 5 -15 10 -15 6 0 10 7 10 15 0 8 -4 15 -10 15 -5 0
-10 -7 -10 -15z"/>
<path d="M2570 1445 c0 -8 5 -15 10 -15 6 0 10 7 10 15 0 8 -4 15 -10 15 -5 0
-10 -7 -10 -15z"/>
<path d="M2610 1445 c0 -8 5 -15 10 -15 6 0 10 7 10 15 0 8 -4 15 -10 15 -5 0
-10 -7 -10 -15z"/>
<path d="M2656 1453 c-11 -11 -6 -23 9 -23 8 0 15 4 15 9 0 13 -16 22 -24 14z"/>
<path d="M1430 1395 c0 -8 5 -15 10 -15 6 0 10 7 10 15 0 8 -4 15 -10 15 -5 0
-10 -7 -10 -15z"/>
<path d="M1470 1395 c0 -8 5 -15 10 -15 6 0 10 7 10 15 0 8 -4 15 -10 15 -5 0
-10 -7 -10 -15z"/>
<path d="M1516 1403 c-11 -11 -6 -23 9 -23 8 0 15 4 15 9 0 13 -16 22 -24 14z"/>
<path d="M1560 1395 c0 -8 5 -15 10 -15 6 0 10 7 10 15 0 8 -4 15 -10 15 -5 0
-10 -7 -10 -15z"/>
<path d="M1600 1395 c0 -8 5 -15 10 -15 6 0 10 7 10 15 0 8 -4 15 -10 15 -5 0
-10 -7 -10 -15z"/>
<path d="M1650 1395 c0 -8 5 -15 10 -15 6 0 10 7 10 15 0 8 -4 15 -10 15 -5 0
-10 -7 -10 -15z"/>
<path d="M1690 1395 c0 -8 5 -15 10 -15 6 0 10 7 10 15 0 8 -4 15 -10 15 -5 0
-10 -7 -10 -15z"/>
<path d="M1736 1403 c-11 -11 -6 -23 9 -23 8 0 15 4 15 9 0 13 -16 22 -24 14z"/>
<path d="M2350 1395 c0 -8 5 -15 10 -15 6 0 10 7 10 15 0 8 -4 15 -10 15 -5 0
-10 -7 -10 -15z"/>
<path d="M2390 1395 c0 -8 5 -15 10 -15 6 0 10 7 10 15 0 8 -4 15 -10 15 -5 0
-10 -7 -10 -15z"/>
<path d="M2436 1403 c-11 -11 -6 -23 9 -23 8 0 15 4 15 9 0 13 -16 22 -24 14z"/>
<path d="M2480 1395 c0 -8 5 -15 10 -15 6 0 10 7 10 15 0 8 -4 15 -10 15 -5 0
-10 -7 -10 -15z"/>
<path d="M2520 1395 c0 -8 5 -15 10 -15 6 0 10 7 10 15 0 8 -4 15 -10 15 -5 0
-10 -7 -10 -15z"/>
<path d="M2570 1395 c0 -8 5 -15 10 -15 6 0 10 7 10 15 0 8 -4 15 -10 15 -5 0
-10 -7 -10 -15z"/>
<path d="M2610 1395 c0 -8 5 -15 10 -15 6 0 10 7 10 15 0 8 -4 15 -10 15 -5 0
-10 -7 -10 -15z"/>
<path d="M2650 1396 c0 -9 7 -16 16 -16 9 0 14 5 12 12 -6 18 -28 21 -28 4z"/>
<path d="M1812 1348 c2 -13 8 -23 13 -23 6 0 11 10 13 23 2 15 -2 22 -13 22
-11 0 -15 -7 -13 -22z"/>
<path d="M1900 1350 c0 -11 7 -20 15 -20 8 0 15 9 15 20 0 11 -7 20 -15 20 -8
0 -15 -9 -15 -20z"/>
<path d="M1992 1348 c2 -13 8 -23 13 -23 6 0 11 10 13 23 2 15 -2 22 -13 22
-11 0 -15 -7 -13 -22z"/>
<path d="M2080 1350 c0 -11 7 -20 15 -20 8 0 15 9 15 20 0 11 -7 20 -15 20 -8
0 -15 -9 -15 -20z"/>
<path d="M2172 1348 c2 -13 8 -23 13 -23 6 0 11 10 13 23 2 15 -2 22 -13 22
-11 0 -15 -7 -13 -22z"/>
<path d="M2260 1350 c0 -11 7 -20 15 -20 8 0 15 9 15 20 0 11 -7 20 -15 20 -8
0 -15 -9 -15 -20z"/>
<path d="M1430 1346 c0 -9 5 -16 10 -16 6 0 10 4 10 9 0 6 -4 13 -10 16 -5 3
-10 -1 -10 -9z"/>
<path d="M1470 1345 c0 -8 5 -15 10 -15 6 0 10 7 10 15 0 8 -4 15 -10 15 -5 0
-10 -7 -10 -15z"/>
<path d="M1516 1353 c-11 -11 -6 -23 9 -23 8 0 15 4 15 9 0 13 -16 22 -24 14z"/>
<path d="M1560 1345 c0 -8 5 -15 10 -15 6 0 10 7 10 15 0 8 -4 15 -10 15 -5 0
-10 -7 -10 -15z"/>
<path d="M1600 1345 c0 -8 5 -15 10 -15 6 0 10 7 10 15 0 8 -4 15 -10 15 -5 0
-10 -7 -10 -15z"/>
<path d="M1650 1346 c0 -9 5 -16 10 -16 6 0 10 4 10 9 0 6 -4 13 -10 16 -5 3
-10 -1 -10 -9z"/>
<path d="M1690 1345 c0 -8 5 -15 10 -15 6 0 10 7 10 15 0 8 -4 15 -10 15 -5 0
-10 -7 -10 -15z"/>
<path d="M1736 1353 c-11 -11 -6 -23 9 -23 8 0 15 4 15 9 0 13 -16 22 -24 14z"/>
<path d="M2350 1345 c0 -8 5 -15 10 -15 6 0 10 7 10 15 0 8 -4 15 -10 15 -5 0
-10 -7 -10 -15z"/>
<path d="M2390 1345 c0 -8 5 -15 10 -15 6 0 10 7 10 15 0 8 -4 15 -10 15 -5 0
-10 -7 -10 -15z"/>
<path d="M2436 1352 c-3 -6 -1 -14 5 -17 15 -10 25 3 12 16 -7 7 -13 7 -17 1z"/>
<path d="M2480 1345 c0 -8 5 -15 10 -15 6 0 10 7 10 15 0 8 -4 15 -10 15 -5 0
-10 -7 -10 -15z"/>
<path d="M2520 1345 c0 -8 5 -15 10 -15 6 0 10 7 10 15 0 8 -4 15 -10 15 -5 0
-10 -7 -10 -15z"/>
<path d="M2570 1345 c0 -8 5 -15 10 -15 6 0 10 7 10 15 0 8 -4 15 -10 15 -5 0
-10 -7 -10 -15z"/>
<path d="M2610 1345 c0 -8 5 -15 10 -15 6 0 10 7 10 15 0 8 -4 15 -10 15 -5 0
-10 -7 -10 -15z"/>
<path d="M2656 1353 c-11 -11 -6 -23 9 -23 8 0 15 4 15 9 0 13 -16 22 -24 14z"/>
<path d="M560 1450 c0 -19 3 -21 12 -12 9 9 9 15 0 24 -9 9 -12 7 -12 -12z"/>
<path d="M600 1455 c0 -8 5 -15 10 -15 6 0 10 7 10 15 0 8 -4 15 -10 15 -5 0
-10 -7 -10 -15z"/>
<path d="M646 1463 c-11 -11 -6 -23 9 -23 8 0 15 4 15 9 0 13 -16 22 -24 14z"/>
<path d="M690 1455 c0 -8 5 -15 10 -15 6 0 10 7 10 15 0 8 -4 15 -10 15 -5 0
-10 -7 -10 -15z"/>
<path d="M560 1394 c0 -8 5 -12 10 -9 6 3 10 10 10 16 0 5 -4 9 -10 9 -5 0
-10 -7 -10 -16z"/>
<path d="M600 1395 c0 -8 5 -15 10 -15 6 0 10 7 10 15 0 8 -4 15 -10 15 -5 0
-10 -7 -10 -15z"/>
<path d="M642 1399 c2 -6 8 -10 13 -10 5 0 11 4 13 10 2 6 -4 11 -13 11 -9 0
-15 -5 -13 -11z"/>
<path d="M690 1395 c0 -8 5 -15 10 -15 6 0 10 7 10 15 0 8 -4 15 -10 15 -5 0
-10 -7 -10 -15z"/>
<path d="M560 1345 c0 -8 5 -15 10 -15 6 0 10 7 10 15 0 8 -4 15 -10 15 -5 0
-10 -7 -10 -15z"/>
<path d="M600 1345 c0 -8 5 -15 10 -15 6 0 10 7 10 15 0 8 -4 15 -10 15 -5 0
-10 -7 -10 -15z"/>
<path d="M640 1345 c0 -8 7 -15 15 -15 8 0 15 7 15 15 0 8 -7 15 -15 15 -8 0
-15 -7 -15 -15z"/>
<path d="M690 1345 c0 -8 5 -15 10 -15 6 0 10 7 10 15 0 8 -4 15 -10 15 -5 0
-10 -7 -10 -15z"/>
<path d="M804 1459 c-3 -6 -1 -16 5 -22 8 -8 11 -5 11 11 0 24 -5 28 -16 11z"/>
<path d="M850 1455 c0 -8 5 -15 10 -15 6 0 10 7 10 15 0 8 -4 15 -10 15 -5 0
-10 -7 -10 -15z"/>
<path d="M890 1455 c0 -8 5 -15 10 -15 6 0 10 7 10 15 0 8 -4 15 -10 15 -5 0
-10 -7 -10 -15z"/>
<path d="M940 1450 c0 -19 3 -21 12 -12 9 9 9 15 0 24 -9 9 -12 7 -12 -12z"/>
<path d="M800 1401 c0 -6 5 -13 10 -16 6 -3 10 1 10 9 0 9 -4 16 -10 16 -5 0
-10 -4 -10 -9z"/>
<path d="M850 1394 c0 -8 5 -12 10 -9 6 3 10 10 10 16 0 5 -4 9 -10 9 -5 0
-10 -7 -10 -16z"/>
<path d="M890 1395 c0 -8 5 -15 10 -15 6 0 10 7 10 15 0 8 -4 15 -10 15 -5 0
-10 -7 -10 -15z"/>
<path d="M932 1399 c2 -6 8 -10 13 -10 5 0 11 4 13 10 2 6 -4 11 -13 11 -9 0
-15 -5 -13 -11z"/>
<path d="M800 1345 c0 -8 5 -15 10 -15 6 0 10 7 10 15 0 8 -4 15 -10 15 -5 0
-10 -7 -10 -15z"/>
<path d="M850 1345 c0 -8 5 -15 10 -15 6 0 10 7 10 15 0 8 -4 15 -10 15 -5 0
-10 -7 -10 -15z"/>
<path d="M890 1345 c0 -8 5 -15 10 -15 6 0 10 7 10 15 0 8 -4 15 -10 15 -5 0
-10 -7 -10 -15z"/>
<path d="M937 1354 c-8 -8 1 -24 14 -24 5 0 9 7 9 15 0 15 -12 20 -23 9z"/>
<path d="M1055 1460 c-4 -6 -3 -16 3 -22 6 -6 12 -6 17 2 4 6 3 16 -3 22 -6 6
-12 6 -17 -2z"/>
<path d="M1100 1455 c0 -8 5 -15 10 -15 6 0 10 7 10 15 0 8 -4 15 -10 15 -5 0
-10 -7 -10 -15z"/>
<path d="M1144 1459 c-3 -6 -1 -16 5 -22 8 -8 11 -5 11 11 0 24 -5 28 -16 11z"/>
<path d="M1190 1456 c0 -9 5 -16 10 -16 6 0 10 4 10 9 0 6 -4 13 -10 16 -5 3
-10 -1 -10 -9z"/>
<path d="M1052 1399 c2 -6 8 -10 13 -10 5 0 11 4 13 10 2 6 -4 11 -13 11 -9 0
-15 -5 -13 -11z"/>
<path d="M1100 1395 c0 -8 5 -15 10 -15 6 0 10 7 10 15 0 8 -4 15 -10 15 -5 0
-10 -7 -10 -15z"/>
<path d="M1140 1401 c0 -6 5 -13 10 -16 6 -3 10 1 10 9 0 9 -4 16 -10 16 -5 0
-10 -4 -10 -9z"/>
<path d="M1190 1394 c0 -8 5 -12 10 -9 6 3 10 10 10 16 0 5 -4 9 -10 9 -5 0
-10 -7 -10 -16z"/>
<path d="M1057 1354 c-8 -8 1 -24 14 -24 5 0 9 7 9 15 0 15 -12 20 -23 9z"/>
<path d="M1100 1345 c0 -8 5 -15 10 -15 6 0 10 7 10 15 0 8 -4 15 -10 15 -5 0
-10 -7 -10 -15z"/>
<path d="M1140 1345 c0 -8 5 -15 10 -15 6 0 10 7 10 15 0 8 -4 15 -10 15 -5 0
-10 -7 -10 -15z"/>
<path d="M1190 1345 c0 -8 5 -15 10 -15 6 0 10 7 10 15 0 8 -4 15 -10 15 -5 0
-10 -7 -10 -15z"/>
<path d="M1285 1450 c-4 -6 -3 -16 3 -22 6 -6 12 -6 17 2 4 6 3 16 -3 22 -6 6
-12 6 -17 -2z"/>
<path d="M1287 1394 c-8 -8 1 -24 14 -24 5 0 9 7 9 15 0 15 -12 20 -23 9z"/>
<path d="M2800 1440 c0 -19 3 -21 12 -12 9 9 9 15 0 24 -9 9 -12 7 -12 -12z"/>
<path d="M2800 1385 c0 -8 5 -15 10 -15 6 0 10 7 10 15 0 8 -4 15 -10 15 -5 0
-10 -7 -10 -15z"/>
<path d="M2895 1460 c-4 -6 -3 -16 3 -22 6 -6 12 -6 17 2 4 6 3 16 -3 22 -6 6
-12 6 -17 -2z"/>
<path d="M2940 1455 c0 -8 5 -15 10 -15 6 0 10 7 10 15 0 8 -4 15 -10 15 -5 0
-10 -7 -10 -15z"/>
<path d="M2986 1461 c-4 -7 -5 -15 -2 -18 9 -9 19 4 14 18 -4 11 -6 11 -12 0z"/>
<path d="M3030 1450 c0 -19 3 -21 12 -12 9 9 9 15 0 24 -9 9 -12 7 -12 -12z"/>
<path d="M2892 1399 c2 -6 8 -10 13 -10 5 0 11 4 13 10 2 6 -4 11 -13 11 -9 0
-15 -5 -13 -11z"/>
<path d="M2940 1395 c0 -8 5 -15 10 -15 6 0 10 7 10 15 0 8 -4 15 -10 15 -5 0
-10 -7 -10 -15z"/>
<path d="M2980 1401 c0 -6 5 -13 10 -16 6 -3 10 1 10 9 0 9 -4 16 -10 16 -5 0
-10 -4 -10 -9z"/>
<path d="M3030 1394 c0 -8 5 -12 10 -9 6 3 10 10 10 16 0 5 -4 9 -10 9 -5 0
-10 -7 -10 -16z"/>
<path d="M2890 1345 c0 -8 7 -15 15 -15 8 0 15 7 15 15 0 8 -7 15 -15 15 -8 0
-15 -7 -15 -15z"/>
<path d="M2940 1345 c0 -8 5 -15 10 -15 6 0 10 7 10 15 0 8 -4 15 -10 15 -5 0
-10 -7 -10 -15z"/>
<path d="M2980 1345 c0 -8 5 -15 10 -15 6 0 10 7 10 15 0 8 -4 15 -10 15 -5 0
-10 -7 -10 -15z"/>
<path d="M3030 1345 c0 -8 5 -15 10 -15 6 0 10 7 10 15 0 8 -4 15 -10 15 -5 0
-10 -7 -10 -15z"/>
<path d="M3150 1456 c0 -9 5 -16 10 -16 6 0 10 4 10 9 0 6 -4 13 -10 16 -5 3
-10 -1 -10 -9z"/>
<path d="M3190 1455 c0 -8 5 -15 10 -15 6 0 10 7 10 15 0 8 -4 15 -10 15 -5 0
-10 -7 -10 -15z"/>
<path d="M3235 1460 c-4 -6 -3 -16 3 -22 6 -6 12 -6 17 2 4 6 3 16 -3 22 -6 6
-12 6 -17 -2z"/>
<path d="M3280 1455 c0 -8 5 -15 10 -15 6 0 10 7 10 15 0 8 -4 15 -10 15 -5 0
-10 -7 -10 -15z"/>
<path d="M3147 1404 c-8 -8 1 -24 14 -24 5 0 9 7 9 15 0 15 -12 20 -23 9z"/>
<path d="M3190 1395 c0 -8 5 -15 10 -15 6 0 10 7 10 15 0 8 -4 15 -10 15 -5 0
-10 -7 -10 -15z"/>
<path d="M3232 1399 c2 -6 8 -10 13 -10 5 0 11 4 13 10 2 6 -4 11 -13 11 -9 0
-15 -5 -13 -11z"/>
<path d="M3280 1395 c0 -8 5 -15 10 -15 6 0 10 7 10 15 0 8 -4 15 -10 15 -5 0
-10 -7 -10 -15z"/>
<path d="M3150 1345 c0 -8 5 -15 10 -15 6 0 10 7 10 15 0 8 -4 15 -10 15 -5 0
-10 -7 -10 -15z"/>
<path d="M3190 1345 c0 -8 5 -15 10 -15 6 0 10 7 10 15 0 8 -4 15 -10 15 -5 0
-10 -7 -10 -15z"/>
<path d="M3237 1353 c-12 -11 -8 -23 8 -23 8 0 15 7 15 15 0 16 -12 20 -23 8z"/>
<path d="M3280 1345 c0 -8 5 -15 10 -15 6 0 10 7 10 15 0 8 -4 15 -10 15 -5 0
-10 -7 -10 -15z"/>
<path d="M3394 1459 c-3 -6 -1 -16 5 -22 8 -8 11 -5 11 11 0 24 -5 28 -16 11z"/>
<path d="M3440 1449 c0 -11 5 -17 10 -14 6 3 10 13 10 21 0 8 -4 14 -10 14 -5
0 -10 -9 -10 -21z"/>
<path d="M3480 1455 c0 -8 5 -15 10 -15 6 0 10 7 10 15 0 8 -4 15 -10 15 -5 0
-10 -7 -10 -15z"/>
<path d="M3526 1463 c-11 -11 -6 -23 9 -23 8 0 15 4 15 9 0 13 -16 22 -24 14z"/>
<path d="M3390 1401 c0 -6 5 -13 10 -16 6 -3 10 1 10 9 0 9 -4 16 -10 16 -5 0
-10 -4 -10 -9z"/>
<path d="M3440 1394 c0 -8 5 -12 10 -9 6 3 10 10 10 16 0 5 -4 9 -10 9 -5 0
-10 -7 -10 -16z"/>
<path d="M3480 1395 c0 -8 5 -15 10 -15 6 0 10 7 10 15 0 8 -4 15 -10 15 -5 0
-10 -7 -10 -15z"/>
<path d="M3522 1399 c2 -6 8 -10 13 -10 5 0 11 4 13 10 2 6 -4 11 -13 11 -9 0
-15 -5 -13 -11z"/>
<path d="M3390 1345 c0 -8 5 -15 10 -15 6 0 10 7 10 15 0 8 -4 15 -10 15 -5 0
-10 -7 -10 -15z"/>
<path d="M3440 1345 c0 -8 5 -15 10 -15 6 0 10 7 10 15 0 8 -4 15 -10 15 -5 0
-10 -7 -10 -15z"/>
<path d="M3480 1345 c0 -8 5 -15 10 -15 6 0 10 7 10 15 0 8 -4 15 -10 15 -5 0
-10 -7 -10 -15z"/>
<path d="M3527 1354 c-8 -8 1 -24 14 -24 5 0 9 7 9 15 0 15 -12 20 -23 9z"/>
<path d="M816 1595 c-50 -21 -76 -25 -161 -25 -57 0 -117 -3 -134 -6 -88 -18
5 -24 371 -24 320 0 399 3 390 12 -9 9 -62 15 -155 18 -114 5 -153 10 -197 28
-30 12 -55 22 -55 22 0 -1 -27 -12 -59 -25z"/>
<path d="M3165 1597 c-40 -17 -79 -22 -192 -27 -93 -3 -146 -9 -155 -18 -9 -9
71 -12 397 -12 320 0 406 3 397 12 -8 8 -63 15 -150 18 -108 5 -148 11 -190
28 -29 12 -54 22 -55 21 -1 -1 -24 -10 -52 -22z"/>
<path d="M850 1093 c51 -98 157 -253 174 -253 4 0 30 18 56 40 l47 40 19 -22
c11 -11 15 -23 9 -25 -5 -2 -39 -18 -74 -36 l-64 -32 -84 -210 c-46 -116 -86
-218 -89 -227 -5 -17 19 -18 410 -18 229 0 416 -2 416 -5 0 -3 -13 -26 -30
-53 l-29 -47 436 -3 c240 -1 438 0 441 2 2 3 -7 25 -22 50 -14 24 -26 47 -26
50 0 3 187 6 416 6 229 0 414 4 412 8 -1 4 -43 108 -92 229 l-90 222 -72 34
c-70 33 -71 34 -55 55 l16 21 52 -41 c45 -34 55 -39 68 -28 36 30 205 306 205
335 0 3 -17 5 -37 5 -36 0 -40 -3 -68 -57 -30 -57 -100 -170 -116 -187 -5 -6
-29 8 -59 33 l-50 42 -51 -55 -51 -56 -94 0 c-52 0 -94 2 -94 4 0 2 30 33 66
68 62 59 164 184 164 201 0 4 -17 7 -39 7 -34 0 -43 -5 -76 -47 -63 -79 -116
-132 -186 -184 l-66 -49 -213 0 c-210 0 -214 0 -245 -24 l-32 -24 -29 23 c-29
24 -32 24 -245 25 l-217 0 -58 44 c-62 46 -178 162 -208 209 -16 23 -25 27
-63 27 l-44 0 43 -62 c24 -35 78 -98 121 -140 l79 -78 -100 0 -100 0 -43 53
c-24 28 -44 54 -46 56 -2 2 -26 -15 -54 -39 l-52 -44 -22 28 c-30 38 -116 183
-122 207 -4 15 -14 19 -50 19 l-44 0 51 -97z m340 -376 c-33 -91 -60 -170 -60
-176 0 -8 122 -11 415 -11 228 0 415 -2 415 -5 0 -2 -9 -19 -20 -37 -35 -57
-33 -58 115 -58 74 0 135 2 135 5 0 3 -9 23 -20 45 -11 22 -20 42 -20 45 0 3
187 5 415 5 228 0 415 3 415 8 0 4 -29 84 -64 177 -68 181 -68 196 -4 158 27
-16 38 -38 94 -192 35 -95 66 -182 69 -192 6 -18 -6 -19 -402 -19 -224 0 -413
-4 -420 -8 -9 -6 -6 -18 11 -49 13 -23 21 -44 18 -47 -7 -8 -462 -8 -462 -1 0
3 9 23 20 45 21 41 25 61 13 59 -5 -1 -193 -1 -419 0 l-411 1 71 196 71 195
40 18 c22 10 41 15 43 11 2 -4 -24 -82 -58 -173z m832 152 c32 -23 33 -23 66
0 25 18 50 20 302 22 151 1 314 2 361 1 l86 -2 58 -157 c32 -87 60 -164 62
-170 4 -10 -82 -13 -411 -13 -281 0 -416 -3 -416 -10 0 -6 9 -29 20 -50 l20
-40 -115 0 c-63 0 -115 2 -115 5 0 3 9 23 20 45 11 22 20 42 20 45 0 3 -187 5
-415 5 -228 0 -415 4 -415 8 0 5 26 81 59 168 l59 159 88 5 c49 3 213 3 364 1
249 -3 278 -5 302 -22z m-947 -214 c-37 -99 -67 -184 -68 -190 -1 -7 144 -11
416 -13 229 -1 417 -5 417 -8 0 -2 -9 -22 -20 -44 -11 -22 -20 -42 -20 -45 0
-3 115 -5 255 -5 140 0 255 2 255 4 0 2 -12 24 -26 50 l-26 46 421 0 c232 0
421 4 421 8 0 5 -31 94 -69 198 -39 103 -68 190 -67 192 2 1 15 -3 29 -9 28
-13 27 -11 117 -244 32 -82 61 -158 65 -167 7 -17 -17 -18 -409 -18 -229 0
-416 -2 -416 -5 0 -3 11 -28 25 -55 14 -27 25 -52 25 -55 0 -3 -157 -5 -349
-5 l-349 0 29 53 c16 28 29 55 29 60 0 4 -187 7 -415 7 -228 0 -415 3 -415 8
0 4 35 96 77 205 62 162 81 201 102 212 14 7 27 10 29 7 1 -4 -27 -88 -63
-187z"/>
<path d="M1590 792 l-35 -3 0 -84 0 -85 43 0 c40 0 42 1 42 30 l0 30 65 0 65
0 0 -31 c0 -29 1 -30 43 -27 23 2 41 6 40 11 -2 4 -3 42 -3 85 l0 78 -40 -4
c-37 -4 -40 -7 -40 -33 l0 -29 -65 0 -65 0 0 29 c0 35 -4 37 -50 33z"/>
<path d="M2010 705 l0 -85 40 0 40 0 0 85 0 85 -40 0 -40 0 0 -85z"/>
<path d="M2242 768 c3 -20 9 -23 53 -23 l50 0 3 -62 3 -63 39 0 39 0 3 63 3
62 53 0 c48 -1 52 1 52 22 0 23 0 23 -151 23 -150 0 -150 0 -147 -22z"/>
<path d="M1760 1111 c0 -5 -10 -12 -22 -16 l-23 -8 23 -4 c19 -4 22 -11 22
-49 0 -24 5 -44 10 -44 6 0 10 28 10 65 0 37 -4 65 -10 65 -5 0 -10 -4 -10 -9z"/>
<path d="M1912 1108 c-33 -33 4 -87 50 -72 17 5 20 3 15 -11 -4 -9 -7 -19 -7
-21 0 -9 -39 -4 -45 6 -8 13 -25 13 -25 0 0 -6 11 -15 25 -22 19 -9 29 -8 50
6 20 13 25 24 25 59 0 24 -5 48 -12 55 -15 15 -61 15 -76 0z m58 -13 c17 -20
5 -45 -20 -45 -11 0 -23 7 -26 15 -6 15 11 45 26 45 4 0 13 -7 20 -15z"/>
<path d="M2102 1108 c-12 -12 -17 -38 -6 -38 3 0 13 9 22 21 11 13 23 18 35
14 28 -11 20 -33 -23 -60 -61 -38 -50 -65 26 -65 49 0 42 18 -8 22 l-43 3 43
28 c63 41 57 87 -12 87 -12 0 -27 -5 -34 -12z"/>
<path d="M2292 1108 c-18 -18 -15 -94 4 -112 19 -20 34 -20 62 0 24 17 30 70
12 105 -12 22 -59 26 -78 7z m56 -10 c30 -30 3 -108 -33 -94 -28 10 -15 106
15 106 3 0 11 -5 18 -12z"/>
</g>
</svg>
